<svg id="Capa_1" data-name="Capa 1" xmlns="http://www.w3.org/2000/svg" viewBox="0 0 100 100"><defs><style>.cls-1{fill:#fff;stroke:#1d1d1b;stroke-miterlimit:10;stroke-width:4px;}.cls-2{fill:#030404;}</style></defs><circle class="cls-1" cx="50" cy="50" r="48"/><path d="M297.5,394.73c-7.1,0-8,0-10.78.16a19.13,19.13,0,0,0-6.35,1.22,13.27,13.27,0,0,0-7.65,7.65,19.13,19.13,0,0,0-1.22,6.35c-.13,2.79-.16,3.68-.16,10.78s0,8,.16,10.78a19.13,19.13,0,0,0,1.22,6.35,13.27,13.27,0,0,0,7.65,7.65,19.13,19.13,0,0,0,6.35,1.22c2.79.13,3.68.16,10.78.16s8,0,10.78-.16a19.13,19.13,0,0,0,6.35-1.22,13.27,13.27,0,0,0,7.65-7.65,19.13,19.13,0,0,0,1.22-6.35c.13-2.79.16-3.68.16-10.78s0-8-.16-10.78a19.13,19.13,0,0,0-1.22-6.35,13.27,13.27,0,0,0-7.65-7.65,19.13,19.13,0,0,0-6.35-1.22C305.49,394.76,304.6,394.73,297.5,394.73Zm0,4.72c7,0,7.81,0,10.57.15a14.34,14.34,0,0,1,4.86.9,8.73,8.73,0,0,1,5,5,14.28,14.28,0,0,1,.9,4.86c.13,2.76.15,3.59.15,10.57s0,7.81-.15,10.57a14.34,14.34,0,0,1-.9,4.86,8.73,8.73,0,0,1-5,5,14.34,14.34,0,0,1-4.86.9c-2.76.13-3.59.15-10.57.15s-7.81,0-10.57-.15a14.34,14.34,0,0,1-4.86-.9,8.73,8.73,0,0,1-5-5,14.34,14.34,0,0,1-.9-4.86c-.13-2.76-.15-3.59-.15-10.57s0-7.81.15-10.57a14.28,14.28,0,0,1,.9-4.86,8.73,8.73,0,0,1,5-5,14.34,14.34,0,0,1,4.86-.9C289.69,399.47,290.52,399.45,297.5,399.45Z" transform="translate(-247.5 -370.89)"/><path class="cls-2" d="M297.5,429.61a8.72,8.72,0,1,1,8.72-8.72A8.71,8.71,0,0,1,297.5,429.61Zm0-22.15a13.43,13.43,0,1,0,13.43,13.43A13.43,13.43,0,0,0,297.5,407.46Z" transform="translate(-247.5 -370.89)"/><path class="cls-2" d="M314.6,406.93a3.14,3.14,0,1,1-3.14-3.14A3.14,3.14,0,0,1,314.6,406.93Z" transform="translate(-247.5 -370.89)"/></svg>